<?xml version="1.0" encoding="iso-8859-1"?>
<!-- Generator: Adobe Illustrator 19.0.0, SVG Export Plug-In . SVG Version: 6.00 Build 0)  -->
<svg version="1.1" id="Capa_1" xmlns="http://www.w3.org/2000/svg" xmlns:xlink="http://www.w3.org/1999/xlink" x="0px" y="0px"
	 viewBox="0 0 512 512" style="enable-background:new 0 0 512 512;" xml:space="preserve">
<path style="fill:#3F3372;" d="M181,512L181,512c-33.137,0-60-26.863-60-60v-61l30-30l30,30V512z"/>
<path style="fill:#25255E;" d="M241,391v91c-5.099,0-10.201-0.601-15-2.1c-25.8-6.601-45-31-45-58.9v-30l30-30L241,391z"/>
<polygon style="fill:#1B1B4F;" points="241,391 241,482 226,482 226,376 "/>
<path style="fill:#FF8C2E;" d="M361,150h-60V90l58.125-30L421,90l0,0C421,123.137,394.137,150,361,150z"/>
<path style="fill:#FCBF29;" d="M346,0h-15l-30,44.063L331,90h31.269l38.633-22.207l8.762-51.151C390.619,6.368,369.157,0,346,0z"/>
<path style="fill:#E26B1B;" d="M481,149v-14c0-39.256-17.029-74.29-43.779-98.958c-8.275-7.632-17.569-14.013-27.557-19.4
	c-14.013,8.937-26.093,21.094-34.777,36.209c-6.77,11.787-10.76,24.33-12.618,37.149h30.278H406c35.929,0,65.94,25.269,73.272,59
	H481z"/>
<path style="fill:#3F3372;" d="M331,0v286c0,57.9-47.1,105-105,105H121V135c0-64.501,44.7-118.2,105-131.7
	c9.6-2.1,19.799-3.3,30-3.3C256,0,331,0,331,0z"/>
<g>
	<path style="fill:#25255E;" d="M331,0v286c0,57.9-47.1,105-105,105V3.3c9.6-2.1,19.799-3.3,30-3.3H331z"/>
	<path style="fill:#25255E;" d="M271,225c0,43.2-16.8,85.3-45,115.899c-22.5,25.201-52.5,43.2-87.001,50.101L133,361.599
		C174.4,353.2,208,325,225.999,288.1c9.6-18.9,15-41.501,15-63.1c0-13.2-5.7-25.201-15-33.3c-7.8-7.202-18.3-11.7-30-11.7v-30
		c10.499,0,20.7,2.1,30,6.299C252.4,167.699,271,194.099,271,225z"/>
</g>
<path style="fill:#1B1B4F;" d="M271,225c0,43.2-16.8,85.3-45,115.899V288.1c9.6-18.9,15-41.501,15-63.1c0-13.2-5.7-25.201-15-33.3
	v-35.402C252.4,167.699,271,194.099,271,225z"/>
<rect x="241" y="60" style="fill:#FCBF29;" width="30" height="30"/>
<path style="fill:#12B225;" d="M406,391h-45v-45c0-41.353,34.647-75,76-75h45v45C482,357.353,447.353,391,406,391z"/>
<rect y="361" style="fill:#BF6015;" width="512" height="30"/>
<rect x="226" y="361" style="fill:#994C10;" width="286" height="30"/>
<g>
</g>
<g>
</g>
<g>
</g>
<g>
</g>
<g>
</g>
<g>
</g>
<g>
</g>
<g>
</g>
<g>
</g>
<g>
</g>
<g>
</g>
<g>
</g>
<g>
</g>
<g>
</g>
<g>
</g>
</svg>
